<?xml version="1.0" encoding="UTF-8"?>
<svg id="Capa_2" data-name="Capa 2" xmlns="http://www.w3.org/2000/svg" viewBox="0 0 439.04 548.12">
  <defs>
    <style>
      .cls-1 {
        fill: #eb661f;
        stroke: #eb661f;
      }

      .cls-1, .cls-2, .cls-3, .cls-4, .cls-5, .cls-6, .cls-7, .cls-8, .cls-9, .cls-10, .cls-11, .cls-12 {
        stroke-miterlimit: 10;
      }

      .cls-13 {
        letter-spacing: 0em;
      }

      .cls-14 {
        font-family: CarrigPro-Medium, 'Carrig Pro';
        font-size: 69px;
        font-weight: 500;
      }

      .cls-14, .cls-5 {
        fill: #0f3a4d;
      }

      .cls-2 {
        fill: #28809c;
        stroke: #28809c;
      }

      .cls-15 {
        letter-spacing: .02em;
      }

      .cls-3 {
        fill: #76b86e;
        stroke: #76b86e;
      }

      .cls-4 {
        fill: #fbc136;
        stroke: #fbc136;
      }

      .cls-16 {
        letter-spacing: -.02em;
      }

      .cls-5 {
        stroke: #0f3a4d;
        stroke-width: 4px;
      }

      .cls-6 {
        fill: #1f6685;
        stroke: #1f6685;
      }

      .cls-7 {
        fill: #f49924;
        stroke: #f49924;
      }

      .cls-8 {
        fill: #1f8e71;
        stroke: #1f8e71;
      }

      .cls-9 {
        fill: #f08728;
        stroke: #f08728;
      }

      .cls-17 {
        letter-spacing: 0em;
      }

      .cls-10 {
        fill: #3fa15e;
        stroke: #3fa15e;
      }

      .cls-11 {
        fill: #289060;
        stroke: #289060;
      }

      .cls-12 {
        fill: #39aa7f;
        stroke: #39aa7f;
      }
    </style>
  </defs>
  <g id="Capa_5" data-name="Capa 5">
    <path class="cls-9" d="m328.27,125.27c7.94,9.49,14.55,19.87,19.78,31l66.17-31.11c-18.09-38.47-46.61-69.72-81.04-91.31l-38.8,61.87c12.79,8.02,24.16,17.93,33.88,29.54Z"/>
    <path class="cls-11" d="m90.51,150.08c8.78-16.52,20.48-30.96,34.77-42.92,4.19-3.5,8.55-6.74,13.07-9.72l-40.21-61.06c-35.07,23.15-62.18,55.77-78.84,93.21l66.77,29.6c1.37-3.08,2.85-6.12,4.44-9.11Z"/>
    <path class="cls-3" d="m232.53,74.37c18.53,1.92,36.3,7.35,52.82,16.14,3,1.59,5.92,3.29,8.78,5.07l38.8-61.87C298.19,11.98,257.47.09,215.45.51l.81,73.11c5.41-.05,10.84.19,16.27.75Z"/>
    <path class="cls-12" d="m74.37,202.9c1.56-15.07,5.45-29.64,11.57-43.44l-66.77-29.6C2.71,167-3.46,208.86,3.05,250.87l72.26-11.21c-1.89-12.15-2.21-24.45-.94-36.76Z"/>
    <path class="cls-10" d="m175.59,79.94c13.24-4.05,26.76-6.15,40.37-6.32l-.81-73.11c-20.19.23-40.68,3.29-60.95,9.48-20.27,6.2-38.96,15.12-55.83,26.22l40.21,61.06c11.38-7.48,23.77-13.29,37.01-17.34Z"/>
    <path class="cls-6" d="m150.08,344.92c-15.25-8.11-28.73-18.71-40.11-31.53l-54.7,48.47c27.67,31.09,63.73,53.54,103.45,64.82l19.8-70.31c-9.8-2.78-19.31-6.6-28.44-11.45Z"/>
    <path class="cls-7" d="m344.92,285.35c-4.85,9.13-10.6,17.61-17.17,25.4l55.73,47.22c26.62-31.57,43.96-70.34,49.52-111.59l-72.46-9.6c-2.27,17-7.51,33.32-15.63,48.57Z"/>
    <path class="cls-4" d="m310.16,328.27c-14.75,12.35-31.63,21.49-50.18,27.18l21.38,69.94c41.22-12.63,75.97-36.49,101.94-67.19l-55.73-47.22c-5.28,6.23-11.09,12-17.41,17.29Z"/>
    <path class="cls-1" d="m414.34,125.43l-66.17,31.11c2.86,6.13,5.31,12.49,7.32,19.05,5.69,18.6,7.56,37.76,5.57,56.94-.14,1.32-.3,2.64-.47,3.96l72.46,9.6c3.99-29.93,1.78-61.16-7.61-91.88-3.05-9.99-6.78-19.59-11.09-28.78Z"/>
    <path class="cls-8" d="m107.16,310.15c-12.38-14.79-21.54-31.72-27.22-50.32-2.01-6.57-3.53-13.21-4.59-19.89L3.1,251.16c1.57,10.03,3.85,20.08,6.9,30.06,9.39,30.72,25.02,57.84,45.07,80.43l54.7-48.47c-.88-.99-1.75-2-2.61-3.02Z"/>
    <path class="cls-2" d="m202.9,361.06c-8.2-.85-16.24-2.39-24.1-4.6l-19.8,70.31c38.7,10.94,80.85,11.28,122.08-1.3l-21.38-69.94c-18.56,5.65-37.66,7.51-56.8,5.53Z"/>
  </g>
  <g id="Capa_6" data-name="Capa 6">
    <polygon class="cls-5" points="220.88 227.72 163.33 170.18 156.95 163.79 150.56 170.18 220.88 240.5 339.04 122.34 332.65 115.95 220.88 227.72"/>
  </g>
  <g id="Capa_7" data-name="Capa 7">
    <text class="cls-14" transform="translate(3.04 522.73)"><tspan x="0" y="0">A</tspan><tspan class="cls-16" x="54.37" y="0">g</tspan><tspan class="cls-13" x="95.84" y="0">e</tspan><tspan class="cls-16" x="133.65" y="0">n</tspan><tspan x="178.85" y="0">da</tspan><tspan class="cls-17" x="263.44" y="0">r</tspan><tspan x="297.18" y="0">i</tspan><tspan class="cls-15" x="319.54" y="0">u</tspan><tspan x="367.42" y="0">m</tspan></text>
  </g>
</svg>